<?xml version="1.0" standalone="no"?>
<!DOCTYPE svg PUBLIC "-//W3C//DTD SVG 20010904//EN"
 "http://www.w3.org/TR/2001/REC-SVG-20010904/DTD/svg10.dtd">
<svg version="1.0" xmlns="http://www.w3.org/2000/svg"
 width="700.000000pt" height="700.000000pt" viewBox="0 0 700.000000 700.000000"
 preserveAspectRatio="xMidYMid meet">
<metadata>
Created by potrace 1.11, written by Peter Selinger 2001-2013
</metadata>
<g transform="translate(0.000000,700.000000) scale(0.100000,-0.100000)"
fill="#000000" stroke="none">
<path d="M3700 6373 c-151 -25 -357 -73 -450 -105 -151 -52 -397 -174 -485
-240 -144 -109 -413 -390 -530 -553 -164 -229 -320 -664 -382 -1065 -24 -157
-24 -497 1 -665 54 -371 164 -707 323 -985 79 -139 179 -291 225 -344 l34 -39
135 159 c155 182 519 626 890 1084 801 989 1719 2131 1719 2138 0 11 -184 170
-270 234 -264 194 -603 333 -910 374 -99 13 -244 16 -300 7z m-693 -1210 c57
-17 123 -66 123 -91 0 -29 -46 -99 -157 -240 -149 -190 -316 -393 -342 -416
-20 -18 -22 -18 -40 -2 -42 38 -101 227 -101 320 1 213 146 409 330 445 53 11
116 5 187 -16z m148 -530 c15 -32 34 -80 41 -108 18 -65 17 -186 0 -251 -35
-133 -135 -253 -246 -295 -76 -30 -185 -29 -262 0 -120 46 -133 81 -67 176 61
87 322 399 405 484 83 85 84 85 129 -6z"/>
<path d="M4449 4479 c-47 -57 -391 -484 -765 -949 -374 -465 -914 -1135 -1199
-1490 -650 -808 -665 -827 -665 -854 0 -39 155 -177 338 -300 195 -132 419
-227 647 -276 143 -31 465 -39 623 -16 190 28 322 72 557 186 209 101 351 215
568 455 199 221 290 363 381 594 116 293 185 586 207 871 35 467 -94 1035
-332 1465 -58 105 -202 328 -252 389 l-23 29 -85 -104z"/>
</g>
</svg>
