<svg width="178" height="82" viewBox="0 0 178 82" fill="none" xmlns="http://www.w3.org/2000/svg">
<path d="M44.101 64.885C42.203 64.885 40.487 64.56 38.953 63.91C37.445 63.26 36.249 62.324 35.365 61.102C34.481 59.88 34.026 58.437 34 56.773H39.85C39.928 57.891 40.318 58.775 41.02 59.425C41.748 60.075 42.736 60.4 43.984 60.4C45.258 60.4 46.259 60.101 46.987 59.503C47.715 58.879 48.079 58.073 48.079 57.085C48.079 56.279 47.832 55.616 47.338 55.096C46.844 54.576 46.22 54.173 45.466 53.887C44.738 53.575 43.724 53.237 42.424 52.873C40.656 52.353 39.213 51.846 38.095 51.352C37.003 50.832 36.054 50.065 35.248 49.051C34.468 48.011 34.078 46.633 34.078 44.917C34.078 43.305 34.481 41.901 35.287 40.705C36.093 39.509 37.224 38.599 38.68 37.975C40.136 37.325 41.8 37 43.672 37C46.48 37 48.755 37.689 50.497 39.067C52.265 40.419 53.24 42.317 53.422 44.761H47.416C47.364 43.825 46.961 43.058 46.207 42.46C45.479 41.836 44.504 41.524 43.282 41.524C42.216 41.524 41.358 41.797 40.708 42.343C40.084 42.889 39.772 43.682 39.772 44.722C39.772 45.45 40.006 46.061 40.474 46.555C40.968 47.023 41.566 47.413 42.268 47.725C42.996 48.011 44.01 48.349 45.31 48.739C47.078 49.259 48.521 49.779 49.639 50.299C50.757 50.819 51.719 51.599 52.525 52.639C53.331 53.679 53.734 55.044 53.734 56.734C53.734 58.19 53.357 59.542 52.603 60.79C51.849 62.038 50.744 63.039 49.288 63.793C47.832 64.521 46.103 64.885 44.101 64.885Z" fill="black"/>
<path d="M63.7626 46.126C64.4646 45.138 65.4266 44.319 66.6486 43.669C67.8966 42.993 69.3136 42.655 70.8996 42.655C72.7456 42.655 74.4096 43.11 75.8916 44.02C77.3996 44.93 78.5826 46.23 79.4406 47.92C80.3246 49.584 80.7666 51.521 80.7666 53.731C80.7666 55.941 80.3246 57.904 79.4406 59.62C78.5826 61.31 77.3996 62.623 75.8916 63.559C74.4096 64.495 72.7456 64.963 70.8996 64.963C69.3136 64.963 67.9096 64.638 66.6876 63.988C65.4916 63.338 64.5166 62.519 63.7626 61.531V74.908H58.3026V43.006H63.7626V46.126ZM75.1896 53.731C75.1896 52.431 74.9166 51.313 74.3706 50.377C73.8506 49.415 73.1486 48.687 72.2646 48.193C71.4066 47.699 70.4706 47.452 69.4566 47.452C68.4686 47.452 67.5326 47.712 66.6486 48.232C65.7906 48.726 65.0886 49.454 64.5426 50.416C64.0226 51.378 63.7626 52.509 63.7626 53.809C63.7626 55.109 64.0226 56.24 64.5426 57.202C65.0886 58.164 65.7906 58.905 66.6486 59.425C67.5326 59.919 68.4686 60.166 69.4566 60.166C70.4706 60.166 71.4066 59.906 72.2646 59.386C73.1486 58.866 73.8506 58.125 74.3706 57.163C74.9166 56.201 75.1896 55.057 75.1896 53.731Z" fill="black"/>
<path d="M104.654 53.341C104.654 54.121 104.602 54.823 104.498 55.447H88.7033C88.8333 57.007 89.3793 58.229 90.3413 59.113C91.3033 59.997 92.4863 60.439 93.8903 60.439C95.9183 60.439 97.3613 59.568 98.2193 57.826H104.108C103.484 59.906 102.288 61.622 100.52 62.974C98.7523 64.3 96.5813 64.963 94.0073 64.963C91.9273 64.963 90.0553 64.508 88.3913 63.598C86.7533 62.662 85.4663 61.349 84.5303 59.659C83.6203 57.969 83.1653 56.019 83.1653 53.809C83.1653 51.573 83.6203 49.61 84.5303 47.92C85.4403 46.23 86.7143 44.93 88.3523 44.02C89.9903 43.11 91.8753 42.655 94.0073 42.655C96.0613 42.655 97.8943 43.097 99.5063 43.981C101.144 44.865 102.405 46.126 103.289 47.764C104.199 49.376 104.654 51.235 104.654 53.341ZM98.9993 51.781C98.9733 50.377 98.4663 49.259 97.4783 48.427C96.4903 47.569 95.2813 47.14 93.8513 47.14C92.4993 47.14 91.3553 47.556 90.4193 48.388C89.5093 49.194 88.9503 50.325 88.7423 51.781H98.9993Z" fill="black"/>
<path d="M120.448 42.694C123.022 42.694 125.102 43.513 126.688 45.151C128.274 46.763 129.067 49.025 129.067 51.937V64.612H123.607V52.678C123.607 50.962 123.178 49.649 122.32 48.739C121.462 47.803 120.292 47.335 118.81 47.335C117.302 47.335 116.106 47.803 115.222 48.739C114.364 49.649 113.935 50.962 113.935 52.678V64.612H108.475V43.006H113.935V45.697C114.663 44.761 115.586 44.033 116.704 43.513C117.848 42.967 119.096 42.694 120.448 42.694Z" fill="black"/>
<path d="M132.69 53.809C132.69 51.573 133.145 49.623 134.055 47.959C134.965 46.269 136.226 44.969 137.838 44.059C139.45 43.123 141.296 42.655 143.376 42.655C146.054 42.655 148.264 43.331 150.006 44.683C151.774 46.009 152.957 47.881 153.555 50.299H147.666C147.354 49.363 146.821 48.635 146.067 48.115C145.339 47.569 144.429 47.296 143.337 47.296C141.777 47.296 140.542 47.868 139.632 49.012C138.722 50.13 138.267 51.729 138.267 53.809C138.267 55.863 138.722 57.462 139.632 58.606C140.542 59.724 141.777 60.283 143.337 60.283C145.547 60.283 146.99 59.295 147.666 57.319H153.555C152.957 59.659 151.774 61.518 150.006 62.896C148.238 64.274 146.028 64.963 143.376 64.963C141.296 64.963 139.45 64.508 137.838 63.598C136.226 62.662 134.965 61.362 134.055 59.698C133.145 58.008 132.69 56.045 132.69 53.809Z" fill="black"/>
<path d="M177.475 53.341C177.475 54.121 177.423 54.823 177.319 55.447H161.524C161.654 57.007 162.2 58.229 163.162 59.113C164.124 59.997 165.307 60.439 166.711 60.439C168.739 60.439 170.182 59.568 171.04 57.826H176.929C176.305 59.906 175.109 61.622 173.341 62.974C171.573 64.3 169.402 64.963 166.828 64.963C164.748 64.963 162.876 64.508 161.212 63.598C159.574 62.662 158.287 61.349 157.351 59.659C156.441 57.969 155.986 56.019 155.986 53.809C155.986 51.573 156.441 49.61 157.351 47.92C158.261 46.23 159.535 44.93 161.173 44.02C162.811 43.11 164.696 42.655 166.828 42.655C168.882 42.655 170.715 43.097 172.327 43.981C173.965 44.865 175.226 46.126 176.11 47.764C177.02 49.376 177.475 51.235 177.475 53.341ZM171.82 51.781C171.794 50.377 171.287 49.259 170.299 48.427C169.311 47.569 168.102 47.14 166.672 47.14C165.32 47.14 164.176 47.556 163.24 48.388C162.33 49.194 161.771 50.325 161.563 51.781H171.82Z" fill="black"/>
<path d="M47.4375 33.732C49.1198 30.3182 49.9967 26.5596 50 22.7487C49.997 19.2011 49.2446 15.6946 47.7927 12.4622C46.3408 9.22972 44.2226 6.34517 41.5788 4C37.3762 7.70409 34.5462 12.7342 33.5515 18.2679C32.5569 23.8016 36.103 34.4635 36.103 34.4635C36.103 34.4635 32.4511 29.7702 30.4376 27.5845C25.4184 22.4415 18.6672 19.379 11.5158 19.0011C11.9035 26.1625 14.9728 32.9098 20.1052 37.8832C22.1297 39.8568 24.4185 41.5355 26.9052 42.8703C24.7678 42.14 22.5302 41.7509 20.2734 41.7172C17.2055 41.7155 14.1716 42.3629 11.3681 43.6175C8.56472 44.8721 6.05443 46.7058 4 48.9998C6.05639 51.2939 8.56864 53.1274 11.3739 54.3814C14.1792 55.6353 17.2148 56.2817 20.2841 56.2787C23.5666 55.9234 26.7923 55.1571 29.8864 53.9978C29.8864 53.9978 27.0233 56.794 25.6883 58.1417C24.2716 59.5473 23.1686 61.2407 22.4528 63.109C21.7369 64.9774 21.4246 66.9779 21.5368 68.9773C24.8357 69.1638 28.0974 68.1977 30.7704 66.2423M42 69V82" stroke="#00CF78" stroke-width="5.5"/>
</svg>
